<svg width="133" height="126" fill="none" xmlns="http://www.w3.org/2000/svg">
  <path opacity=".5" d="m117.24 78.7 4.1 2.4v9.53l-4.1-2.39v-9.53Z" fill="#5CFFF3"/>
  <path opacity=".2" d="m113.14 81.1 4.1 2.38v4.76l-4.1-2.38v-4.77Z" fill="#5CFFF3"/>
  <path opacity=".5" d="m109.05 64.36 4.1 2.39v19.1l-4.1-2.38v-19.1Z" fill="#5CFFF3"/>
  <path opacity=".2" d="m104.95 57.21 4.1 2.38v23.88l-4.1-2.38V57.21Z" fill="#5CFFF3"/>
  <path opacity=".5" d="m100.85 59.6 4.1 2.38v19.11l-4.1-2.38V59.59Z" fill="#5CFFF3"/>
  <path opacity=".2" d="m96.75 42.9 4.1 2.4v33.4l-4.1-2.38V42.91Z" fill="#5CFFF3"/>
  <path opacity=".5" d="m92.65 45.3 4.1 2.38v28.64l-4.1-2.42V45.3Z" fill="#5CFFF3"/>
  <path opacity=".2" d="m88.55 47.68 4.1 2.38V73.9l-4.1-2.39V47.68Z" fill="#5CFFF3"/>
  <path opacity=".5" d="m84.46 35.76 4.1 2.38v33.37l-4.1-2.38V35.76Z" fill="#5CFFF3"/>
  <path opacity=".2" d="m80.36 23.84 4.1 2.38v42.91l-4.1-2.38V23.84Z" fill="#5CFFF3"/>
  <path opacity=".5" d="m76.26 26.22 4.1 2.39v38.14l-4.1-2.39V26.22Z" fill="#5CFFF3"/>
  <path opacity=".2" d="m72.16 14.3 4.1 2.39v47.67l-4.1-2.38V14.3Z" fill="#5CFFF3"/>
  <path opacity=".5" d="m68.06 11.92 4.1 2.38v47.68l-4.1-2.39V11.92Z" fill="#5CFFF3"/>
  <path opacity=".2" d="m63.97 0 4.1 2.38V59.6l-4.1-2.38V0Z" fill="#5CFFF3"/>
  <path opacity=".4" d="M67.98 126c20.74 0 37.56-9.78 37.56-21.84S88.72 82.33 67.98 82.33c-20.74 0-37.56 9.77-37.56 21.83 0 12.06 16.82 21.84 37.56 21.84Z" fill="#0F054C"/>
  <path d="M67.98 117.32c23.61 0 42.75-11.13 42.75-24.86 0-13.73-19.14-24.86-42.75-24.86S25.22 78.73 25.22 92.46c0 13.73 19.15 24.86 42.76 24.86Z" fill="url(#a)"/>
  <path opacity=".48" d="M110.73 84.24h-1.05c-1.73-4.43-5.54-8.64-11.45-12.09-16.69-9.7-43.73-9.7-60.46 0-5.58 3.24-9.3 7.2-11.15 11.37h-1.36V89c-.33 6.6 3.85 13.28 12.51 18.3 16.69 9.7 43.73 9.7 60.46 0 8.36-4.85 12.5-11.2 12.5-17.58v-5.49Z" fill="url(#b)"/>
  <path opacity=".48" d="M110.73 84.24h-1.05c-1.73-4.43-5.54-8.64-11.45-12.09-16.69-9.7-43.73-9.7-60.46 0-5.58 3.24-9.3 7.2-11.15 11.37h-1.36V89c-.33 6.6 3.85 13.28 12.51 18.3 16.69 9.7 43.73 9.7 60.46 0 8.36-4.85 12.5-11.2 12.5-17.58v-5.49Z" fill="url(#c)"/>
  <path opacity=".48" d="M110.73 84.24h-1.05c-1.73-4.43-5.54-8.64-11.45-12.09-16.69-9.7-43.73-9.7-60.46 0-5.58 3.24-9.3 7.2-11.15 11.37h-1.36V89c-.33 6.6 3.85 13.28 12.51 18.3 16.69 9.7 43.73 9.7 60.46 0 8.36-4.85 12.5-11.2 12.5-17.58v-5.49Z" fill="url(#d)"/>
  <path d="M110.73 82.11h-1.05c-1.73-4.42-5.54-8.64-11.45-12.09-16.69-9.7-43.73-9.7-60.46 0-5.58 3.24-9.3 7.2-11.15 11.37h-1.36v5.49c-.33 6.6 3.85 13.28 12.51 18.3 16.69 9.71 43.73 9.71 60.46 0 8.36-4.85 12.5-11.2 12.5-17.58v-5.49Z" fill="url(#e)"/>
  <path opacity=".48" d="M109.68 82.11c-.04-.17-.13-.3-.17-.47v-3.61h-2.24v-.26a18.54 18.54 0 0 0-1.9-2.26v2.52h-1.27v-3.75c-.59-.55-1.22-1.06-1.9-1.62v5.37h-1.27v-6.3a24.8 24.8 0 0 0-1.9-1.24v7.54h-1.27v-8.3l-1.9-1.03v9.33H94.6V68.1c-.64-.3-1.27-.56-1.95-.85v10.77h-1.27V69.3h-1.94v8.73h-1.27v-6.3h-1.94v6.34h-1.27v-3.92h-1.94v3.92h-1.23v-1.53h-1.98v1.53H56.23v-1.53H54.3v1.53h-1.23v-3.92h-1.98v3.92H49.8v-6.34h-1.94v6.34H46.6v-8.73h-1.94v8.73h-1.27V67.3c-.63.25-1.31.55-1.94.85v9.92h-1.27v-9.32c-.63.34-1.31.68-1.9 1.02v8.3H37v-7.58c-.68.43-1.3.81-1.9 1.24v6.3h-1.27v-5.37a27.4 27.4 0 0 0-1.9 1.62v3.79h-1.27v-2.51c-.72.72-1.35 1.49-1.9 2.25v.3h-2.24v3.32h-.93v9.24a15.9 15.9 0 0 0 1.9 4.9v-5.8h1.31v7.75c.55.77 1.19 1.5 1.9 2.26v-9.96h1.27v11.24c.6.55 1.23 1.06 1.9 1.61V89.86h1.27v13.75c.6.42 1.27.85 1.9 1.23V89.82h1.27v15.75l1.9 1.02V89.82h1.27v17.37c.63.3 1.27.55 1.94.85V89.82h1.27v18.73c.63.25 1.27.47 1.94.68V89.82h1.27v19.8c.63.2 1.27.38 1.94.55v-20.4h1.27v20.7l1.95.46V89.77h1.22v21.42c.63.12 1.31.25 1.94.34V89.78h1.23v21.96l1.94.26V89.78h1.23v22.34c.63.09 1.3.13 1.94.17V89.77h1.23v22.6c.67.05 1.3.1 1.98.1v-22.7H67v22.74h1.98V89.78h1.23v22.68c.67 0 1.3-.04 1.98-.08v-22.6h1.23v22.51c.67-.04 1.3-.08 1.94-.17V89.78h1.23V112l1.94-.26V89.78h1.23v21.75c.63-.13 1.3-.22 1.94-.34V89.78h1.23v21.1c.63-.12 1.3-.29 1.94-.46V89.73h1.27v20.4c.63-.18 1.3-.4 1.94-.56v-19.8h1.27v19.42l1.94-.69V89.82h1.27v18.22a38.1 38.1 0 0 0 1.94-.86V89.83h1.27v16.77c.63-.34 1.3-.68 1.9-1.02V89.82h1.27v14.98c.67-.42 1.3-.8 1.9-1.23V89.82h1.27v12.81c.67-.51 1.3-1.06 1.9-1.62v-11.2h1.27v9.97c.71-.73 1.35-1.5 1.9-2.26v-7.7h1.3v5.74a16.56 16.56 0 0 0 1.9-4.93V82.2l-.71-.09Z" fill="url(#f)"/>
  <path d="M67.98 106.97c23.61 0 42.75-11.13 42.75-24.86 0-13.73-19.14-24.86-42.75-24.86S25.22 68.38 25.22 82.11c0 13.73 19.15 24.86 42.76 24.86Z" fill="url(#g)"/>
  <path opacity=".3" d="M68.02 57.25c-9.67 0-19.35 1.92-27.25 5.7L28.01 90.89c2.07 3.2 5.32 6.22 9.76 8.81a45.97 45.97 0 0 0 9.04 4l21.21-46.44Zm11.96 1.02-21.93 48.06c5.24.73 10.69.86 16.01.43l20.2-44.23c-4.35-2-9.21-3.4-14.28-4.26Z" fill="#42E8E0"/>
  <g opacity=".05">
    <path d="M67.98 104.12c20.9 0 37.85-9.85 37.85-22 0-12.16-16.94-22.01-37.85-22.01-20.9 0-37.86 9.85-37.86 22 0 12.16 16.95 22.01 37.86 22.01Z" fill="url(#h)"/>
    <path d="M.38 82.03 0 81.8l65.9-38.35.43.21L.38 82.03Zm1.18.67-.42-.2L67.1 44.14l.38.22L1.57 82.7Zm1.14.69-.38-.26 65.91-38.35.42.26L2.7 83.39Zm1.19.68-.43-.25 65.96-38.36.38.26L3.89 84.07Zm1.14.68-.38-.25 65.9-38.36.43.26L5.03 84.75Zm1.18.68-.42-.25 65.95-38.36.38.26-65.9 38.35Zm1.14.64-.38-.21L72.88 47.5l.42.2L7.35 86.08Zm1.18.68-.42-.21 65.95-38.35.38.2-65.9 38.36Zm1.15.68-.39-.2L75.2 48.86l.43.21L9.68 87.43Zm1.18.68-.42-.2 65.95-38.36.38.21-65.91 38.35Zm1.14.69-.38-.26 65.9-38.35.43.25L12 88.8Zm1.18.68-.42-.26L78.7 50.87l.38.25-65.9 38.36Zm1.14.68-.38-.26 65.91-38.35.42.25-65.95 38.36Zm1.18.68-.42-.26 65.95-38.35.38.26-65.9 38.35Zm1.15.64-.38-.22 65.9-38.35.43.21-65.95 38.36Zm1.18.68-.42-.21 65.95-38.36.38.22-65.91 38.35Zm1.14.68-.38-.21 65.9-38.36.43.22-65.95 38.35Zm1.18.68-.42-.25L85.68 54.9l.38.26-65.9 38.35Zm1.15.68-.39-.25 65.91-38.36.42.26L21.3 94.2Zm1.18.68-.43-.25L88 56.27l.39.26-65.91 38.35Zm1.14.68-.38-.25 65.9-38.35.43.25-65.95 38.35Zm1.18.69-.42-.26 65.95-38.35.38.25L24.8 96.25Zm1.14.63-.38-.2 65.9-38.36.43.21-65.95 38.35Zm1.18.68-.42-.2L92.65 59l.38.21-65.9 38.35Zm1.14.69-.38-.22L93.8 59.68l.43.21-65.96 38.36Zm1.19.68-.42-.26 65.95-38.35.38.25-65.91 38.36Zm1.14.67-.42-.25L96.12 61l.42.25-65.95 38.36Zm1.18.69-.42-.26L97.3 61.68l.38.26-65.9 38.35Zm1.14.68-.42-.25 65.95-38.36.42.26-65.95 38.35Zm1.19.68-.43-.25 65.95-38.36.38.26-65.9 38.35Zm1.14.64-.43-.21 65.95-38.36.43.22-65.95 38.35Zm1.18.68-.42-.21 65.95-38.36.38.22-65.91 38.35Zm1.14.68-.42-.21 65.95-38.35.42.2-65.95 38.36Zm1.18.68-.42-.25 65.95-38.36.38.26-65.9 38.35Zm1.14.68-.42-.25 65.95-38.35.42.25-65.95 38.35Zm1.19.69-.43-.26 65.95-38.35.38.25-65.9 38.35Zm1.13.68-.42-.26 65.96-38.35.42.25-65.95 38.36Zm1.19.68-.42-.26 65.95-38.35.38.21-65.91 38.4Zm1.14.64-.42-.22 65.95-38.35.42.21-65.95 38.36Zm1.14.68-.38-.22 65.95-38.35.38.21-65.95 38.36Zm1.18.68-.42-.22 65.95-38.35.43.21-65.96 38.36Zm1.15.68-.39-.26 65.96-38.35.38.26L48 109.74Zm1.18.68-.42-.25L114.7 71.8l.42.26-65.95 38.35Zm1.14.68-.38-.25 65.9-38.36.43.26-65.95 38.35Zm1.18.68-.42-.25 65.95-38.36.42.26-65.95 38.35Zm1.14.64-.38-.21 65.91-38.36.42.22-65.95 38.35Zm1.19.68-.43-.21 65.95-38.35.43.2-65.95 38.36Zm1.14.68-.38-.21 65.9-38.35.43.21-65.95 38.35Zm1.18.68-.42-.2 65.95-38.36.42.21-65.95 38.35Zm1.14.68-.38-.25 65.9-38.35.43.25-65.95 38.35Zm1.18.69-.42-.26L124 77.22l.42.25-65.95 38.36Zm1.14.67-.38-.25 65.91-38.35.42.25-65.95 38.36Zm1.19.69-.43-.26 65.95-38.35.43.26-65.95 38.35Zm1.14.64-.38-.22 65.9-38.35.43.21-65.95 38.36Zm1.18.67-.42-.2 65.95-38.36.42.21-65.95 38.36Zm1.14.69-.38-.21 65.9-38.36.43.22-65.95 38.35Zm1.18.68-.42-.21 65.95-38.36.38.22-65.9 38.35Zm1.14.68-.38-.25 65.91-38.36.42.26-65.95 38.35Zm1.19.68-.42-.25 65.95-38.36.38.26-65.91 38.35Zm1.13.68-.37-.25 65.9-38.36.43.26-65.95 38.35Zm1.2.69-.43-.26 65.95-38.35.38.25-65.9 38.36Z" fill="#42E8E0"/>
  </g>
  <path d="M41.24 68.07c14.78-8.6 38.74-8.6 53.52 0 7.06 4.12 10.74 9.45 11.07 14.8.34-5.87-3.33-11.82-11.07-16.3-14.78-8.6-38.74-8.6-53.52 0C33.5 71.06 29.83 77 30.17 82.88c.3-5.4 4-10.72 11.07-14.8Z" fill="url(#i)"/>
  <path d="M79.68 77.47c-2.28-.21-4.48.17-6.59 1.11 2.54-2.13 1.94-4.3-1.77-6.51a14.42 14.42 0 0 0-4.1-1.83c-1.4-.39-2.7-.6-3.93-.6s-2.45.17-3.76.51c-.68.17-1.35.38-1.94.6l-2.37-1.4-3.5 2.04 1.94 1.15c-.34.17-.72.38-1.06.6l-1.27.76-1.94-1.15-3.5 2.04 1.94 1.15-2.41 1.4-.93.56-.26.13-4 2.34 3.5 2.04 4.01-2.34 25.3 14.73-4 2.34 3.5 2.04 4.02-2.34 1.22-.68 2.4-1.4 2 1.14 3.5-2.04-1.27-.72-.71-.43 2.32-1.36L88 92.5l3.51-2.04-1.27-.73-1.01-.6c1.4-1.23 2.11-2.42 2.2-3.65.08-1.83-1.44-3.7-4.57-5.54-.08-.04-.12-.08-.2-.13a16.52 16.52 0 0 0-6.98-2.34Zm-23.53-.85 1.14-.64c2.79-1.61 5.45-1.7 8.03-.21 1.48.85 2.32 1.66 2.45 2.38.12.73-.55 1.54-2.11 2.43l-1.36.8-8.15-4.76Zm22.52 13.11-9.68-5.62 1.4-.8a7.95 7.95 0 0 1 4.48-1.28c1.39.08 3 .64 4.81 1.7 1.6.94 2.5 1.83 2.62 2.64.13.8-.59 1.66-2.11 2.55l-1.52.81Z" fill="url(#j)"/>
  <path d="M45.88 71.9v2.25l1.95-1.1-1.95-1.15Z" fill="url(#k)"/>
  <path d="M51.71 68.5v2.25l1.99-1.1-1.99-1.16Z" fill="url(#l)"/>
  <path d="M74.65 73.05v2.68l-1.77-1.1 1.77-1.58Z" fill="url(#m)"/>
  <path d="M91.38 82.11v3.32l-2.61-1.66 2.61-1.66Z" fill="url(#n)"/>
  <path d="M79.68 74.62c-2.28-.21-4.48.17-6.59 1.1 2.54-2.12 1.94-4.3-1.77-6.5a14.41 14.41 0 0 0-4.1-1.83c-1.4-.39-2.7-.6-3.93-.6s-2.45.17-3.76.5c-.68.18-1.35.4-1.94.6l-2.37-1.4-3.5 2.04 1.94 1.15c-.34.17-.72.39-1.06.6l-1.27.77-1.94-1.15-3.5 2.04 1.94 1.15-2.41 1.4-.93.56-.26.12-4 2.35 3.5 2.04 4.01-2.34 25.3 14.73-4 2.34 3.5 2.04 4.02-2.34 1.22-.68 2.4-1.4 2 1.14 3.5-2.04-1.27-.72-.71-.43 2.32-1.36L88 89.65l3.51-2.05-1.27-.72-1.01-.6c1.4-1.23 2.11-2.42 2.2-3.66.08-1.83-1.44-3.7-4.57-5.53-.08-.04-.12-.09-.2-.13a15.94 15.94 0 0 0-6.98-2.34Zm-23.53-.85 1.14-.64c2.79-1.62 5.45-1.7 8.03-.21 1.48.85 2.32 1.66 2.45 2.38.12.73-.55 1.53-2.11 2.43l-1.36.8-8.15-4.76Zm22.52 13.11-9.68-5.62 1.4-.8a7.95 7.95 0 0 1 4.48-1.28c1.39.08 3 .63 4.81 1.7 1.6.93 2.5 1.83 2.62 2.64.13.8-.59 1.66-2.11 2.55l-1.52.81Z" fill="url(#o)"/>
  <path d="M91.47 87.56v2.85l-3.5 2.05v-2.9l3.5-2Z" fill="url(#p)"/>
  <path d="M85.64 90.92v2.9l-3.5 2v-2.85l3.5-2.05Z" fill="url(#q)"/>
  <path d="M72.5 96.29v2.85L69 97.1v-2.86l3.5 2.05Z" fill="url(#r)"/>
  <path d="M40.18 77.47v2.86l3.5 2.04v-2.85l-3.5-2.05Z" fill="url(#s)"/>
  <path d="M47.7 80.03v-2.86l-4.01 2.35v2.85l4-2.34Z" fill="url(#t)"/>
  <path d="M47.7 77.17v2.86L70.56 93.3 73 91.9 47.7 77.17Z" fill="url(#u)"/>
  <path d="M68.53 61.42a8.68 8.68 0 0 1-4.27-1.02c-1.18-.68-1.86-1.61-1.86-2.64 0-1.02.68-1.95 1.86-2.63a9.51 9.51 0 0 1 8.58 0c1.18.68 1.86 1.61 1.86 2.63 0 1.03-.68 1.96-1.86 2.64a9.08 9.08 0 0 1-4.31 1.02Zm0-6.85a8.4 8.4 0 0 0-4.06.98c-1.05.6-1.6 1.4-1.6 2.21s.59 1.62 1.6 2.22a8.8 8.8 0 0 0 8.11 0c1.06-.6 1.61-1.4 1.61-2.22 0-.8-.6-1.61-1.6-2.2a8.07 8.07 0 0 0-4.06-.99Z" fill="#42E8E0"/>
  <path d="M71.06 59.21a5.6 5.6 0 0 1-5.07 0c-1.4-.8-1.4-2.13 0-2.94a5.6 5.6 0 0 1 5.07 0c1.4.81 1.4 2.13 0 2.94Zm12.26-8.6-2.5-1.49 4.27-2.47 2.5 1.45-4.27 2.51Z" fill="#42E8E0"/>
  <path opacity=".8" d="m78.8 48.31-3.17-.93 2.74-3.15 3.17.93-2.75 3.15Z" fill="#42E8E0"/>
  <path opacity=".6" d="m73.26 46.91-3.5-.34.92-3.45 3.55.3-.97 3.49Z" fill="#42E8E0"/>
  <path opacity=".4" d="m67.26 46.57-3.5.34-.94-3.5 3.51-.29.93 3.45Z" fill="#42E8E0"/>
  <path opacity=".2" d="m61.39 47.38-3.17.93-2.75-3.15 3.17-.93 2.75 3.15Z" fill="#42E8E0"/>
  <path opacity=".1" d="m56.23 49.12-2.53 1.5-4.27-2.52 2.54-1.45 4.26 2.47Z" fill="#42E8E0"/>
  <path opacity=".2" d="m74.9 54.53-.88-.51 6.42-3.7.89.5-6.42 3.7Z" fill="#42E8E0"/>
  <path opacity=".4" d="m72.92 53.55-1.14-.34 4.1-4.68 1.14.34-4.1 4.68Z" fill="#42E8E0"/>
  <path opacity=".6" d="m70.47 52.95-1.27-.08 1.44-5.2 1.23.1-1.4 5.18Z" fill="#42E8E0"/>
  <path opacity=".8" d="m67.81 52.87-1.23.08-1.43-5.19 1.27-.08 1.39 5.19Z" fill="#42E8E0"/>
  <path d="m65.23 53.2-1.1.35-4.1-4.68 1.1-.34 4.1 4.68Zm-2.23.82-.9.5-6.37-3.7.88-.5 6.38 3.7Zm-1.7 1.19-.59.64-8.03-2.39.55-.63 8.07 2.38Zm-1.01 1.4-.21.73-8.92-.81.22-.72 8.91.8Zm-.21 1.54.21.72-8.91.85-.22-.72 8.92-.85Zm.63 1.49.6.68-8.08 2.38-.55-.64 8.03-2.42Zm1.39 1.32.9.5-6.39 3.75-.88-.5 6.38-3.75Z" fill="#42E8E0"/>
  <path opacity=".6" d="M93.62 45.67c9.38 6.6 9.93 16.01 1.57 22.95l3.38 3.15c11.49-8.34 11.24-20.35-.76-28.52l-4.19 2.42Z" fill="#42E8E0"/>
  <path opacity=".2" d="M73.6 76.45c-9.93.9-20.45-.85-28.1-5.32a27.5 27.5 0 0 1-4.65-3.4l-5.74 1.14a29.1 29.1 0 0 0 6.17 4.69c9.67 5.62 23.23 7.62 35.66 6l-3.34-3.1Z" fill="#42E8E0"/>
  <path d="m30.42 60.91 5.75-1.15c-1.02-5.49 2.1-11.19 9.33-15.4 12-6.99 30.97-7.37 43.77-1.2l4.23-2.42c-15.13-7.5-37.86-7.11-52.18 1.19-8.91 5.2-12.55 12.26-10.9 18.98Zm34.6 9.37-2.28-1.32 28.81-16.73 2.24 1.28-28.77 16.77Z" fill="#42E8E0"/>
  <path opacity=".8" d="m68.19 72.11-2.24-1.28 12.5-7.28 2.25 1.28-12.51 7.28Z" fill="#42E8E0"/>
  <path opacity=".6" d="m71.61 74.11-2.24-1.32 19.9-11.58 2.24 1.32-19.9 11.58Z" fill="#42E8E0"/>
  <path opacity=".2" d="m74.95 76.07-2.24-1.32 15.5-9.03 2.25 1.32-15.51 9.03Z" fill="#42E8E0"/>
  <defs>
    <linearGradient id="a" x1="23.91" y1="70.08" x2="70.08" y2="141.7" gradientUnits="userSpaceOnUse">
      <stop stop-color="#42E8E0"/>
      <stop offset=".02" stop-color="#40DDDA"/>
      <stop offset=".09" stop-color="#3AAEC0"/>
      <stop offset=".17" stop-color="#3484A9"/>
      <stop offset=".26" stop-color="#2F6195"/>
      <stop offset=".35" stop-color="#2B4486"/>
      <stop offset=".44" stop-color="#282E79"/>
      <stop offset=".54" stop-color="#261E71"/>
      <stop offset=".66" stop-color="#24156C"/>
      <stop offset=".82" stop-color="#24126A"/>
    </linearGradient>
    <linearGradient id="b" x1="18.81" y1="89.75" x2="103.43" y2="89.75" gradientUnits="userSpaceOnUse">
      <stop stop-color="#42E8E0"/>
      <stop offset=".15" stop-color="#43E3E0"/>
      <stop offset=".33" stop-color="#45D5DF"/>
      <stop offset=".52" stop-color="#49BDDD"/>
      <stop offset=".72" stop-color="#4E9CDB"/>
      <stop offset=".93" stop-color="#5472D8"/>
      <stop offset="1" stop-color="#5761D7"/>
    </linearGradient>
    <linearGradient id="c" x1="18.81" y1="89.75" x2="103.43" y2="89.75" gradientUnits="userSpaceOnUse">
      <stop stop-color="#42E8E0"/>
      <stop offset=".15" stop-color="#43E3E0"/>
      <stop offset=".33" stop-color="#45D5DF"/>
      <stop offset=".52" stop-color="#49BDDD"/>
      <stop offset=".72" stop-color="#4E9CDB"/>
      <stop offset=".93" stop-color="#5472D8"/>
      <stop offset="1" stop-color="#5761D7"/>
    </linearGradient>
    <linearGradient id="d" x1="18.81" y1="89.75" x2="103.43" y2="89.75" gradientUnits="userSpaceOnUse">
      <stop stop-color="#42E8E0"/>
      <stop offset=".15" stop-color="#43E3E0"/>
      <stop offset=".33" stop-color="#45D5DF"/>
      <stop offset=".52" stop-color="#49BDDD"/>
      <stop offset=".72" stop-color="#4E9CDB"/>
      <stop offset=".93" stop-color="#5472D8"/>
      <stop offset="1" stop-color="#5761D7"/>
    </linearGradient>
    <linearGradient id="e" x1="18.81" y1="87.61" x2="103.43" y2="87.61" gradientUnits="userSpaceOnUse">
      <stop stop-color="#42E8E0"/>
      <stop offset=".02" stop-color="#40DDDA"/>
      <stop offset=".09" stop-color="#3AAEC0"/>
      <stop offset=".17" stop-color="#3484A9"/>
      <stop offset=".26" stop-color="#2F6195"/>
      <stop offset=".35" stop-color="#2B4486"/>
      <stop offset=".44" stop-color="#282E79"/>
      <stop offset=".54" stop-color="#261E71"/>
      <stop offset=".66" stop-color="#24156C"/>
      <stop offset=".82" stop-color="#24126A"/>
    </linearGradient>
    <linearGradient id="f" x1="25.57" y1="89.87" x2="110.44" y2="89.87" gradientUnits="userSpaceOnUse">
      <stop stop-color="#42E8E0"/>
      <stop offset=".15" stop-color="#43E3E0"/>
      <stop offset=".33" stop-color="#45D5DF"/>
      <stop offset=".52" stop-color="#49BDDD"/>
      <stop offset=".72" stop-color="#4E9CDB"/>
      <stop offset=".93" stop-color="#5472D8"/>
      <stop offset="1" stop-color="#5761D7"/>
    </linearGradient>
    <linearGradient id="g" x1="23.91" y1="59.77" x2="70.08" y2="131.39" gradientUnits="userSpaceOnUse">
      <stop stop-color="#42E8E0"/>
      <stop offset=".02" stop-color="#40DDDA"/>
      <stop offset=".09" stop-color="#3AAEC0"/>
      <stop offset=".17" stop-color="#3484A9"/>
      <stop offset=".26" stop-color="#2F6195"/>
      <stop offset=".35" stop-color="#2B4486"/>
      <stop offset=".44" stop-color="#282E79"/>
      <stop offset=".54" stop-color="#261E71"/>
      <stop offset=".66" stop-color="#24156C"/>
      <stop offset=".82" stop-color="#24126A"/>
    </linearGradient>
    <linearGradient id="h" x1="61.32" y1="48.54" x2="82.77" y2="154.94" gradientUnits="userSpaceOnUse">
      <stop stop-color="#42E8E0"/>
      <stop offset=".02" stop-color="#40DDDA"/>
      <stop offset=".09" stop-color="#3AAEC0"/>
      <stop offset=".17" stop-color="#3484A9"/>
      <stop offset=".26" stop-color="#2F6195"/>
      <stop offset=".35" stop-color="#2B4486"/>
      <stop offset=".44" stop-color="#282E79"/>
      <stop offset=".54" stop-color="#261E71"/>
      <stop offset=".66" stop-color="#24156C"/>
      <stop offset=".82" stop-color="#24126A"/>
    </linearGradient>
    <linearGradient id="i" x1="30.15" y1="71.49" x2="105.84" y2="71.49" gradientUnits="userSpaceOnUse">
      <stop stop-color="#2B237C"/>
      <stop offset="1" stop-color="#180D5B"/>
    </linearGradient>
    <linearGradient id="j" x1="40.18" y1="84.23" x2="91.46" y2="84.23" gradientUnits="userSpaceOnUse">
      <stop stop-color="#2B237C"/>
      <stop offset="1" stop-color="#180D5B"/>
    </linearGradient>
    <linearGradient id="k" x1="46.73" y1="71.43" x2="46.92" y2="74.51" gradientUnits="userSpaceOnUse">
      <stop stop-color="#42E8E0"/>
      <stop offset=".02" stop-color="#40DDDA"/>
      <stop offset=".09" stop-color="#3AAEC0"/>
      <stop offset=".17" stop-color="#3484A9"/>
      <stop offset=".26" stop-color="#2F6195"/>
      <stop offset=".35" stop-color="#2B4486"/>
      <stop offset=".44" stop-color="#282E79"/>
      <stop offset=".54" stop-color="#261E71"/>
      <stop offset=".66" stop-color="#24156C"/>
      <stop offset=".82" stop-color="#24126A"/>
    </linearGradient>
    <linearGradient id="l" x1="52.57" y1="68.04" x2="52.76" y2="71.12" gradientUnits="userSpaceOnUse">
      <stop stop-color="#42E8E0"/>
      <stop offset=".02" stop-color="#40DDDA"/>
      <stop offset=".09" stop-color="#3AAEC0"/>
      <stop offset=".17" stop-color="#3484A9"/>
      <stop offset=".26" stop-color="#2F6195"/>
      <stop offset=".35" stop-color="#2B4486"/>
      <stop offset=".44" stop-color="#282E79"/>
      <stop offset=".54" stop-color="#261E71"/>
      <stop offset=".66" stop-color="#24156C"/>
      <stop offset=".82" stop-color="#24126A"/>
    </linearGradient>
    <linearGradient id="m" x1="73.7" y1="72.59" x2="73.92" y2="76.26" gradientUnits="userSpaceOnUse">
      <stop stop-color="#2B237C"/>
      <stop offset="1" stop-color="#180D5B"/>
    </linearGradient>
    <linearGradient id="n" x1="88.92" y1="83.25" x2="92.52" y2="84" gradientUnits="userSpaceOnUse">
      <stop stop-color="#2B237C"/>
      <stop offset="1" stop-color="#180D5B"/>
    </linearGradient>
    <linearGradient id="o" x1="42.36" y1="75.99" x2="212.06" y2="111.29" gradientUnits="userSpaceOnUse">
      <stop stop-color="#42E8E0"/>
      <stop offset=".02" stop-color="#40DDDA"/>
      <stop offset=".09" stop-color="#3AAEC0"/>
      <stop offset=".17" stop-color="#3484A9"/>
      <stop offset=".26" stop-color="#2F6195"/>
      <stop offset=".35" stop-color="#2B4486"/>
      <stop offset=".44" stop-color="#282E79"/>
      <stop offset=".54" stop-color="#261E71"/>
      <stop offset=".66" stop-color="#24156C"/>
      <stop offset=".82" stop-color="#24126A"/>
    </linearGradient>
    <linearGradient id="p" x1="87.99" y1="89.63" x2="92.45" y2="90.56" gradientUnits="userSpaceOnUse">
      <stop stop-color="#2B237C"/>
      <stop offset="1" stop-color="#180D5B"/>
    </linearGradient>
    <linearGradient id="q" x1="82.16" y1="93.02" x2="86.62" y2="93.95" gradientUnits="userSpaceOnUse">
      <stop stop-color="#2B237C"/>
      <stop offset="1" stop-color="#180D5B"/>
    </linearGradient>
    <linearGradient id="r" x1="68.63" y1="96.24" x2="74.12" y2="97.38" gradientUnits="userSpaceOnUse">
      <stop stop-color="#2B237C"/>
      <stop offset="1" stop-color="#180D5B"/>
    </linearGradient>
    <linearGradient id="s" x1="41.73" y1="76.44" x2="42.15" y2="83.41" gradientUnits="userSpaceOnUse">
      <stop stop-color="#42E8E0"/>
      <stop offset=".02" stop-color="#40DDDA"/>
      <stop offset=".09" stop-color="#3AAEC0"/>
      <stop offset=".17" stop-color="#3484A9"/>
      <stop offset=".26" stop-color="#2F6195"/>
      <stop offset=".35" stop-color="#2B4486"/>
      <stop offset=".44" stop-color="#282E79"/>
      <stop offset=".54" stop-color="#261E71"/>
      <stop offset=".66" stop-color="#24156C"/>
      <stop offset=".82" stop-color="#24126A"/>
    </linearGradient>
    <linearGradient id="t" x1="45.5" y1="76.39" x2="45.91" y2="83.15" gradientUnits="userSpaceOnUse">
      <stop stop-color="#2B237C"/>
      <stop offset="1" stop-color="#180D5B"/>
    </linearGradient>
    <linearGradient id="u" x1="59.61" y1="73.24" x2="61.03" y2="97.07" gradientUnits="userSpaceOnUse">
      <stop stop-color="#42E8E0"/>
      <stop offset=".02" stop-color="#40DDDA"/>
      <stop offset=".09" stop-color="#3AAEC0"/>
      <stop offset=".17" stop-color="#3484A9"/>
      <stop offset=".26" stop-color="#2F6195"/>
      <stop offset=".35" stop-color="#2B4486"/>
      <stop offset=".44" stop-color="#282E79"/>
      <stop offset=".54" stop-color="#261E71"/>
      <stop offset=".66" stop-color="#24156C"/>
      <stop offset=".82" stop-color="#24126A"/>
    </linearGradient>
  </defs>
</svg>
