<svg width="60.000000" height="60.000000" viewBox="0 0 60 60" fill="none" xmlns="http://www.w3.org/2000/svg" xmlns:xlink="http://www.w3.org/1999/xlink">
	<desc>
			Created with Pixso.
	</desc>
	<defs>
		<linearGradient x1="16.231739" y1="60.804497" x2="34.360729" y2="8.563673" id="paint_linear_38_1537_0" gradientUnits="userSpaceOnUse">
			<stop stop-color="#0D748B"/>
			<stop offset="1.000000" stop-color="#1A0B73"/>
		</linearGradient>
	</defs>
	<circle id="Ellipse" cx="30.000000" cy="30.000000" r="30.000000" fill="#F0F5FB" fill-opacity="1.000000"/>
	<path id="Union" d="M33.4365 12C34.3826 12 35.1521 12.7708 35.1521 13.7183L35.1522 17.3579L25.3403 17.3579L25.3403 13.7183C25.3403 12.7708 26.11 12 27.0559 12L33.4365 12ZM19.505 48L19.5045 48C18.0857 47.9998 16.9316 46.8435 16.9316 45.4224L16.9316 18.9897C16.9316 17.5684 18.0859 16.4121 19.505 16.4121L23.6254 16.4121L23.6254 18.2173C23.6254 18.6917 24.0095 19.0764 24.4832 19.0764L36.0103 19.0764C36.4839 19.0764 36.868 18.6917 36.868 18.2173L36.868 16.4121L40.9885 16.4121C42.4075 16.4121 43.5618 17.5684 43.5618 18.9897L43.5618 45.4224C43.5618 46.8438 42.4075 48 40.9885 48L19.505 48ZM38.2279 23.1311L22.2666 23.1311C21.7927 23.1311 21.4088 23.5161 21.4088 23.9905C21.4088 24.4648 21.793 24.8496 22.2666 24.8496L38.2279 24.8496C38.7015 24.8496 39.0857 24.4648 39.0857 23.9905C39.0857 23.5159 38.7015 23.1311 38.2279 23.1311ZM38.2279 29.3196L22.2666 29.3196C21.7927 29.3196 21.4088 29.7041 21.4088 30.1787C21.4088 30.6531 21.793 31.0378 22.2666 31.0378L38.2279 31.0378C38.7015 31.0378 39.0857 30.6531 39.0857 30.1787C39.0857 29.7043 38.7015 29.3196 38.2279 29.3196ZM28.4448 35.5078L22.2666 35.5078C21.7927 35.5078 21.4088 35.8923 21.4088 36.3669C21.4088 36.8413 21.793 37.2263 22.2666 37.2263L28.4448 37.2263C28.9185 37.2263 29.3026 36.8413 29.3026 36.3669C29.3026 35.8926 28.9185 35.5078 28.4448 35.5078ZM40.8003 40.2668L40.8003 40.1233C40.8003 39.0393 40.3845 38.0212 39.6294 37.2563C38.866 36.4834 37.8403 36.0574 36.7411 36.0574C35.6587 36.0574 34.6423 36.4739 33.8789 37.2302C33.1072 37.9946 32.6819 39.0222 32.6819 40.1233L32.6819 40.3301C32.6819 41.4141 33.0977 42.4324 33.8528 43.197C34.6162 43.97 35.6418 44.3958 36.7411 44.3958C37.8623 44.3958 38.9037 43.959 39.6735 43.1653C40.428 42.3875 40.8281 41.3586 40.8003 40.2668ZM34.3975 40.123L34.3975 40.3298C34.3975 41.6462 35.4269 42.6772 36.7411 42.6772C37.3945 42.6772 37.9989 42.425 38.4431 41.9675C38.8751 41.5225 39.103 40.9312 39.085 40.3027C39.0847 40.2944 39.0847 40.2864 39.0847 40.2783L39.0847 40.1228C39.0847 38.8064 38.0553 37.7754 36.7411 37.7754C35.4268 37.7756 34.3975 38.8066 34.3975 40.123Z" clip-rule="evenodd" fill="#FFFFFF" fill-opacity="1.000000" fill-rule="evenodd"/>
	<path id="Union" d="M33.4365 12C34.3826 12 35.1521 12.7708 35.1521 13.7183L35.1522 17.3579L25.3403 17.3579L25.3403 13.7183C25.3403 12.7708 26.11 12 27.0559 12L33.4365 12ZM19.505 48L19.5045 48C18.0857 47.9998 16.9316 46.8435 16.9316 45.4224L16.9316 18.9897C16.9316 17.5684 18.0859 16.4121 19.505 16.4121L23.6254 16.4121L23.6254 18.2173C23.6254 18.6917 24.0095 19.0764 24.4832 19.0764L36.0103 19.0764C36.4839 19.0764 36.868 18.6917 36.868 18.2173L36.868 16.4121L40.9885 16.4121C42.4075 16.4121 43.5618 17.5684 43.5618 18.9897L43.5618 45.4224C43.5618 46.8438 42.4075 48 40.9885 48L19.505 48ZM38.2279 23.1311L22.2666 23.1311C21.7927 23.1311 21.4088 23.5161 21.4088 23.9905C21.4088 24.4648 21.793 24.8496 22.2666 24.8496L38.2279 24.8496C38.7015 24.8496 39.0857 24.4648 39.0857 23.9905C39.0857 23.5159 38.7015 23.1311 38.2279 23.1311ZM38.2279 29.3196L22.2666 29.3196C21.7927 29.3196 21.4088 29.7041 21.4088 30.1787C21.4088 30.6531 21.793 31.0378 22.2666 31.0378L38.2279 31.0378C38.7015 31.0378 39.0857 30.6531 39.0857 30.1787C39.0857 29.7043 38.7015 29.3196 38.2279 29.3196ZM28.4448 35.5078L22.2666 35.5078C21.7927 35.5078 21.4088 35.8923 21.4088 36.3669C21.4088 36.8413 21.793 37.2263 22.2666 37.2263L28.4448 37.2263C28.9185 37.2263 29.3026 36.8413 29.3026 36.3669C29.3026 35.8926 28.9185 35.5078 28.4448 35.5078ZM40.8003 40.2668L40.8003 40.1233C40.8003 39.0393 40.3845 38.0212 39.6294 37.2563C38.866 36.4834 37.8403 36.0574 36.7411 36.0574C35.6587 36.0574 34.6423 36.4739 33.8789 37.2302C33.1072 37.9946 32.6819 39.0222 32.6819 40.1233L32.6819 40.3301C32.6819 41.4141 33.0977 42.4324 33.8528 43.197C34.6162 43.97 35.6418 44.3958 36.7411 44.3958C37.8623 44.3958 38.9037 43.959 39.6735 43.1653C40.428 42.3875 40.8281 41.3586 40.8003 40.2668ZM34.3975 40.123L34.3975 40.3298C34.3975 41.6462 35.4269 42.6772 36.7411 42.6772C37.3945 42.6772 37.9989 42.425 38.4431 41.9675C38.8751 41.5225 39.103 40.9312 39.085 40.3027C39.0847 40.2944 39.0847 40.2864 39.0847 40.2783L39.0847 40.1228C39.0847 38.8064 38.0553 37.7754 36.7411 37.7754C35.4268 37.7756 34.3975 38.8066 34.3975 40.123Z" clip-rule="evenodd" fill="url(#paint_linear_38_1537_0)" fill-opacity="1.000000" fill-rule="evenodd"/>
</svg>
